<svg id="Group_179" data-name="Group 179" xmlns="http://www.w3.org/2000/svg" xmlns:xlink="http://www.w3.org/1999/xlink" width="35" height="33.74" viewBox="0 0 35 33.74">
  <defs>
    <clipPath id="clip-path">
      <rect id="Rectangle_52" data-name="Rectangle 52" width="35" height="33.74" fill="none" stroke="#fff" stroke-width="1"/>
    </clipPath>
    <clipPath id="clip-path-2">
      <path id="Path_6118" data-name="Path 6118" d="M29.56,5.2V6.46a1.68,1.68,0,1,1-3.36,0V5.2H9.4V6.46a1.68,1.68,0,0,1-3.36,0V5.2H5.2A4.2,4.2,0,0,0,1,9.4v4.2H34.6V9.4a4.2,4.2,0,0,0-4.2-4.2Z" transform="translate(-1 -5.2)" fill="none" stroke="#fff" stroke-width="1"/>
    </clipPath>
  </defs>
  <g id="Group_174" data-name="Group 174" transform="translate(0 0)">
    <g id="Group_173" data-name="Group 173" clip-path="url(#clip-path)">
      <path id="Path_6116" data-name="Path 6116" d="M1,34a4.2,4.2,0,0,0,4.2,4.2H30.4A4.2,4.2,0,0,0,34.6,34V17.2H1Z" transform="translate(-0.3 -5.16)" fill="none" stroke="#fff" stroke-linecap="round" stroke-linejoin="round" stroke-width="1"/>
    </g>
  </g>
  <g id="Group_176" data-name="Group 176" transform="translate(0.7 3.64)">
    <g id="Group_175" data-name="Group 175" clip-path="url(#clip-path-2)">
      <path id="Path_6117" data-name="Path 6117" d="M30.4,5.2H5.2A4.2,4.2,0,0,0,1,9.4v4.2H34.6V9.4A4.2,4.2,0,0,0,30.4,5.2Z" transform="translate(-1 -5.2)" fill="none" stroke="#fff" stroke-linecap="round" stroke-linejoin="round" stroke-width="1"/>
    </g>
  </g>
  <g id="Group_178" data-name="Group 178" transform="translate(0 0)">
    <g id="Group_177" data-name="Group 177" clip-path="url(#clip-path)">
      <path id="Path_6119" data-name="Path 6119" d="M30.4,5.2h-.84V6.46a1.68,1.68,0,1,1-3.36,0V5.2H9.4V6.46a1.68,1.68,0,0,1-3.36,0V5.2H5.2A4.2,4.2,0,0,0,1,9.4v4.2H34.6V9.4A4.2,4.2,0,0,0,30.4,5.2Z" transform="translate(-0.3 -1.56)" fill="none" stroke="#fff" stroke-linecap="round" stroke-linejoin="round" stroke-width="1"/>
      <path id="Path_6120" data-name="Path 6120" d="M9.88,6.88h0A1.68,1.68,0,0,1,8.2,5.2V2.68a1.68,1.68,0,0,1,3.36,0V5.2A1.68,1.68,0,0,1,9.88,6.88Z" transform="translate(-2.46 -0.3)" fill="none" stroke="#fff" stroke-linecap="round" stroke-linejoin="round" stroke-width="1"/>
      <path id="Path_6121" data-name="Path 6121" d="M38.68,6.88h0A1.68,1.68,0,0,1,37,5.2V2.68a1.68,1.68,0,0,1,3.36,0V5.2A1.68,1.68,0,0,1,38.68,6.88Z" transform="translate(-11.1 -0.3)" fill="none" stroke="#fff" stroke-linecap="round" stroke-linejoin="round" stroke-width="1"/>
      <path id="Path_6122" data-name="Path 6122" d="M8.85,25.4a.41.41,0,0,1-.147-.029.385.385,0,0,1-.1-.075.349.349,0,0,1,0-.492.388.388,0,0,1,.057-.048c.009,0,.043-.024.076-.039l-.01.006.054-.013.071-.008a.35.35,0,0,1,0,.7Z" transform="translate(-2.55 -7.41)" fill="none" stroke="#fff" stroke-linecap="round" stroke-linejoin="round" stroke-width="1"/>
      <path id="Path_6123" data-name="Path 6123" d="M28.05,25.4a.35.35,0,1,1,.35-.35A.351.351,0,0,1,28.05,25.4Zm-5.6,0a.35.35,0,1,1,.35-.35A.351.351,0,0,1,22.45,25.4Zm-5.6,0a.35.35,0,1,1,.35-.35A.351.351,0,0,1,16.85,25.4Z" transform="translate(-4.95 -7.41)" fill="none" stroke="#fff" stroke-linecap="round" stroke-linejoin="round" stroke-width="1"/>
      <path id="Path_6124" data-name="Path 6124" d="M40.85,25.4a.41.41,0,0,1-.147-.029.385.385,0,0,1-.1-.075.486.486,0,0,1-.085-.132.457.457,0,0,1-.015-.114.878.878,0,0,1,.03-.148s.021-.034.04-.063a.382.382,0,0,1,.279-.138.778.778,0,0,1,.176.04l-.008,0c-.007,0,.02.015.045.031l.071.074.033.059a.359.359,0,0,1,0,.291.447.447,0,0,1-.074.1.466.466,0,0,1-.132.086A.436.436,0,0,1,40.85,25.4Z" transform="translate(-12.15 -7.41)" fill="none" stroke="#fff" stroke-linecap="round" stroke-linejoin="round" stroke-width="1"/>
      <path id="Path_6125" data-name="Path 6125" d="M8.85,32.406a.35.35,0,0,1-.248-.6.343.343,0,0,1,.245-.089.358.358,0,0,1,.249.088.355.355,0,0,1,.1.248.353.353,0,0,1-.35.35Z" transform="translate(-2.55 -9.516)" fill="none" stroke="#fff" stroke-linecap="round" stroke-linejoin="round" stroke-width="1"/>
      <path id="Path_6126" data-name="Path 6126" d="M28.05,32.4a.35.35,0,1,1,.35-.35A.351.351,0,0,1,28.05,32.4Zm-5.6,0a.35.35,0,1,1,.35-.35A.351.351,0,0,1,22.45,32.4Zm-5.6,0a.35.35,0,1,1,.35-.35A.351.351,0,0,1,16.85,32.4Z" transform="translate(-4.95 -9.51)" fill="none" stroke="#fff" stroke-linecap="round" stroke-linejoin="round" stroke-width="1"/>
      <path id="Path_6127" data-name="Path 6127" d="M40.85,32.4a.41.41,0,0,1-.147-.029.385.385,0,0,1-.1-.075.486.486,0,0,1-.085-.132.457.457,0,0,1-.015-.114.367.367,0,0,1,.1-.247.355.355,0,0,1,.247-.1.739.739,0,0,1,.176.04l-.008,0c-.007,0,.02.015.045.031a.737.737,0,0,1,.1.113L41.2,32a.425.425,0,0,1-.026.191.431.431,0,0,1-.074.1.452.452,0,0,1-.132.087A.436.436,0,0,1,40.85,32.4Z" transform="translate(-12.15 -9.51)" fill="none" stroke="#fff" stroke-linecap="round" stroke-linejoin="round" stroke-width="1"/>
      <path id="Path_6128" data-name="Path 6128" d="M8.85,39.406a.352.352,0,0,1-.248-.1.486.486,0,0,1-.086-.132.457.457,0,0,1-.015-.114.757.757,0,0,1,.032-.155s.018-.025.032-.046a.371.371,0,0,1,.286-.134.355.355,0,0,1,.246.088l.065.088a.593.593,0,0,1,.03.092.328.328,0,0,1-.1.316A.35.35,0,0,1,8.85,39.406Z" transform="translate(-2.55 -11.616)" fill="none" stroke="#fff" stroke-linecap="round" stroke-linejoin="round" stroke-width="1"/>
      <path id="Path_6129" data-name="Path 6129" d="M28.05,39.4a.35.35,0,1,1,.35-.35A.351.351,0,0,1,28.05,39.4Zm-5.6,0a.35.35,0,1,1,.35-.35A.351.351,0,0,1,22.45,39.4Zm-5.6,0a.35.35,0,1,1,.35-.35A.351.351,0,0,1,16.85,39.4Z" transform="translate(-4.95 -11.61)" fill="none" stroke="#fff" stroke-linecap="round" stroke-linejoin="round" stroke-width="1"/>
      <path id="Path_6130" data-name="Path 6130" d="M40.85,39.4a.352.352,0,0,1-.249-.1.486.486,0,0,1-.086-.132.457.457,0,0,1-.015-.114.367.367,0,0,1,.1-.247.355.355,0,0,1,.247-.1.739.739,0,0,1,.176.04l-.008,0c-.007,0,.02.015.045.031a.737.737,0,0,1,.1.113L41.2,39a.425.425,0,0,1-.026.191.431.431,0,0,1-.074.1.353.353,0,0,1-.119.081A.393.393,0,0,1,40.85,39.4Z" transform="translate(-12.15 -11.61)" fill="none" stroke="#fff" stroke-linecap="round" stroke-linejoin="round" stroke-width="1"/>
    </g>
  </g>
</svg>
