<svg xmlns="http://www.w3.org/2000/svg" xmlns:xlink="http://www.w3.org/1999/xlink" width="30" height="40.041" viewBox="0 0 30 40.041">
  <defs>
    <clipPath id="clip-path">
      <path id="Path_6131" data-name="Path 6131" d="M17.876,36.351a3.154,3.154,0,0,1-5.33,0c-1.027-1.619-2.235-3.591-3.41-5.662C4.331,31.955,1,34.667,1,37.818c0,4.36,6.362,7.895,14.211,7.895s14.211-3.534,14.211-7.895c0-3.151-3.331-5.863-8.136-7.129-1.175,2.072-2.383,4.043-3.409,5.662" transform="translate(-1 -30.689)" fill="none" stroke="#fff" stroke-width="1"/>
    </clipPath>
    <clipPath id="clip-path-2">
      <rect id="Rectangle_54" data-name="Rectangle 54" width="30" height="40.041" fill="none" stroke="#fff" stroke-width="1"/>
    </clipPath>
    <clipPath id="clip-path-3">
      <path id="Path_6133" data-name="Path 6133" d="M19.392,36.987a3.154,3.154,0,0,1-5.33,0c-.622-.982-1.311-2.094-2.02-3.279-2.312.848-3.842,2.3-3.842,3.956,0,2.616,3.818,4.737,8.526,4.737s8.526-2.121,8.526-4.737c0-1.655-1.528-3.108-3.842-3.956-.708,1.184-1.4,2.3-2.019,3.279" transform="translate(-8.2 -33.708)" fill="none" stroke="#fff" stroke-width="1"/>
    </clipPath>
  </defs>
  <g id="Group_189" data-name="Group 189" transform="translate(0 0)">
    <g id="Group_182" data-name="Group 182" transform="translate(0.789 24.228)">
      <g id="Group_181" data-name="Group 181" clip-path="url(#clip-path)">
        <ellipse id="Ellipse_9" data-name="Ellipse 9" cx="14.211" cy="7.895" rx="14.211" ry="7.895" transform="translate(0 -0.766)" fill="none" stroke="#fff" stroke-linecap="round" stroke-linejoin="round" stroke-width="1"/>
      </g>
    </g>
    <g id="Group_184" data-name="Group 184" transform="translate(0 0)">
      <g id="Group_183" data-name="Group 183" clip-path="url(#clip-path-2)">
        <path id="Path_6132" data-name="Path 6132" d="M21.285,30.689c-1.175,2.072-2.383,4.043-3.41,5.662a3.154,3.154,0,0,1-5.33,0c-1.026-1.619-2.234-3.591-3.409-5.662C4.331,31.955,1,34.667,1,37.818c0,4.36,6.362,7.895,14.211,7.895s14.211-3.534,14.211-7.895C29.421,34.667,26.09,31.955,21.285,30.689Z" transform="translate(-0.211 -6.461)" fill="none" stroke="#fff" stroke-linecap="round" stroke-linejoin="round" stroke-width="1"/>
      </g>
    </g>
    <g id="Group_186" data-name="Group 186" transform="translate(6.474 26.612)">
      <g id="Group_185" data-name="Group 185" clip-path="url(#clip-path-3)">
        <ellipse id="Ellipse_10" data-name="Ellipse 10" cx="8.526" cy="4.737" rx="8.526" ry="4.737" transform="translate(0 -0.781)" fill="none" stroke="#fff" stroke-linecap="round" stroke-linejoin="round" stroke-width="1"/>
      </g>
    </g>
    <g id="Group_188" data-name="Group 188" transform="translate(0 0)">
      <g id="Group_187" data-name="Group 187" clip-path="url(#clip-path-2)">
        <path id="Path_6134" data-name="Path 6134" d="M21.411,33.709c-.708,1.184-1.4,2.3-2.019,3.278a3.154,3.154,0,0,1-5.33,0c-.623-.981-1.312-2.094-2.02-3.278-2.312.847-3.842,2.3-3.842,3.956,0,2.616,3.817,4.737,8.526,4.737s8.526-2.121,8.526-4.737C25.253,36.01,23.724,34.556,21.411,33.709Z" transform="translate(-1.726 -7.097)" fill="none" stroke="#fff" stroke-linecap="round" stroke-linejoin="round" stroke-width="1"/>
        <path id="Path_6135" data-name="Path 6135" d="M27.105,12.053c0,4.153-5.117,12.889-8.388,18.048a3.153,3.153,0,0,1-5.329,0C10.117,24.942,5,16.206,5,12.053a11.053,11.053,0,1,1,22.105,0Z" transform="translate(-1.053 -0.211)" fill="none" stroke="#fff" stroke-linecap="round" stroke-linejoin="round" stroke-width="1"/>
        <circle id="Ellipse_11" data-name="Ellipse 11" cx="5.526" cy="5.526" r="5.526" transform="translate(9.474 6.316)" fill="none" stroke="#fff" stroke-linecap="round" stroke-linejoin="round" stroke-width="1"/>
      </g>
    </g>
  </g>
</svg>
