<svg id="Group_192" data-name="Group 192" xmlns="http://www.w3.org/2000/svg" xmlns:xlink="http://www.w3.org/1999/xlink" width="35" height="32.308" viewBox="0 0 35 32.308">
  <defs>
    <clipPath id="clip-path">
      <rect id="Rectangle_57" data-name="Rectangle 57" width="35" height="32.308" fill="none" stroke="#fff" stroke-width="1"/>
    </clipPath>
  </defs>
  <g id="Group_191" data-name="Group 191" clip-path="url(#clip-path)">
    <path id="Path_6136" data-name="Path 6136" d="M29.269,27.75v7.4a2.692,2.692,0,0,1-2.692,2.692H3.692A2.692,2.692,0,0,1,1,35.154V21.692A2.692,2.692,0,0,1,3.692,19h9.423" transform="translate(-0.327 -6.212)" fill="none" stroke="#fff" stroke-linecap="round" stroke-linejoin="round" stroke-width="1"/>
    <circle id="Ellipse_12" data-name="Ellipse 12" cx="9.423" cy="9.423" r="9.423" transform="translate(15.481 0.673)" fill="none" stroke="#fff" stroke-linecap="round" stroke-linejoin="round" stroke-width="1"/>
    <path id="Path_6137" data-name="Path 6137" d="M39.077,11l-2.692,2.692-2.694,2.692L31,13.692" transform="translate(-10.135 -3.596)" fill="none" stroke="#fff" stroke-linecap="round" stroke-linejoin="round" stroke-width="1"/>
    <line id="Line_5" data-name="Line 5" x2="2.692" transform="translate(4.712 24.904)" fill="none" stroke="#fff" stroke-linecap="round" stroke-linejoin="round" stroke-width="1"/>
    <line id="Line_6" data-name="Line 6" x2="2.692" transform="translate(10.096 24.904)" fill="none" stroke="#fff" stroke-linecap="round" stroke-linejoin="round" stroke-width="1"/>
    <line id="Line_7" data-name="Line 7" x2="2.692" transform="translate(15.481 24.904)" fill="none" stroke="#fff" stroke-linecap="round" stroke-linejoin="round" stroke-width="1"/>
    <line id="Line_8" data-name="Line 8" x2="2.692" transform="translate(20.865 24.904)" fill="none" stroke="#fff" stroke-linecap="round" stroke-linejoin="round" stroke-width="1"/>
    <line id="Line_9" data-name="Line 9" x2="8.077" transform="translate(4.712 27.596)" fill="none" stroke="#fff" stroke-linecap="round" stroke-linejoin="round" stroke-width="1"/>
    <rect id="Rectangle_56" data-name="Rectangle 56" width="4.038" height="4.038" transform="translate(4.712 18.173)" fill="none" stroke="#fff" stroke-linecap="round" stroke-linejoin="round" stroke-width="1"/>
  </g>
</svg>
