<svg id="Group_171" data-name="Group 171" xmlns="http://www.w3.org/2000/svg" xmlns:xlink="http://www.w3.org/1999/xlink" width="29" height="26" viewBox="0 0 29 26">
  <defs>
    <clipPath id="clip-path">
      <rect id="Rectangle_51" data-name="Rectangle 51" width="29" height="26" transform="translate(0 0)" fill="none" stroke="#403630" stroke-width="1"/>
    </clipPath>
  </defs>
  <g id="Group_170" data-name="Group 170" clip-path="url(#clip-path)">
    <path id="Path_6109" data-name="Path 6109" d="M52.9,15.6a.025.025,0,0,1-.018-.043,6.061,6.061,0,0,0,0-8.561.025.025,0,0,1,0-.036.025.025,0,0,1,.035,0,6.11,6.11,0,0,1,0,8.633A.025.025,0,0,1,52.9,15.6Z" transform="translate(-26.089 -3.43)" fill="none" stroke="#403630" stroke-linecap="round" stroke-linejoin="round" stroke-width="1"/>
    <path id="Path_6110" data-name="Path 6110" d="M49.717,15.555a.025.025,0,0,1-.018-.043,3.774,3.774,0,0,0,0-5.337.025.025,0,0,1,.035-.035,3.823,3.823,0,0,1,0,5.408A.025.025,0,0,1,49.717,15.555Z" transform="translate(-24.519 -4.999)" fill="none" stroke="#403630" stroke-linecap="round" stroke-linejoin="round" stroke-width="1"/>
    <path id="Path_6111" data-name="Path 6111" d="M2.8,15.6a.025.025,0,0,1-.018-.008,6.11,6.11,0,0,1,0-8.633.025.025,0,0,1,.035,0,.025.025,0,0,1,0,.036,6.061,6.061,0,0,0,0,8.561A.025.025,0,0,1,2.8,15.6Z" transform="translate(-0.493 -3.43)" fill="none" stroke="#403630" stroke-linecap="round" stroke-linejoin="round" stroke-width="1"/>
    <path id="Path_6112" data-name="Path 6112" d="M6.632,15.555a.025.025,0,0,1-.018-.008,3.823,3.823,0,0,1,0-5.408.025.025,0,0,1,.035.035,3.774,3.774,0,0,0,0,5.337.025.025,0,0,1-.018.043Z" transform="translate(-2.711 -4.999)" fill="none" stroke="#403630" stroke-linecap="round" stroke-linejoin="round" stroke-width="1"/>
    <path id="Path_6113" data-name="Path 6113" d="M13.742,44.533a2.032,2.032,0,0,0,2.026,2.026H26.913a2.032,2.032,0,0,0,2.026-2.026V42h-15.2Z" transform="translate(-6.781 -20.723)" fill="none" stroke="#403630" stroke-linecap="round" stroke-linejoin="round" stroke-width="1"/>
    <path id="Path_6114" data-name="Path 6114" d="M26.913,1H15.768a2.032,2.032,0,0,0-2.026,2.026V5.559h15.2V3.026A2.032,2.032,0,0,0,26.913,1Z" transform="translate(-6.781 -0.493)" fill="none" stroke="#403630" stroke-linecap="round" stroke-linejoin="round" stroke-width="1"/>
    <rect id="Rectangle_50" data-name="Rectangle 50" width="15.198" height="16.211" transform="translate(6.961 5.066)" fill="none" stroke="#403630" stroke-linecap="round" stroke-linejoin="round" stroke-width="1"/>
    <path id="Path_6115" data-name="Path 6115" d="M28.752,5.5H26.029a.025.025,0,1,1,0-.051h2.723a.025.025,0,0,1,0,.051Z" transform="translate(-12.831 -2.689)" fill="none" stroke="#403630" stroke-linecap="round" stroke-linejoin="round" stroke-width="1"/>
    <circle id="Ellipse_8" data-name="Ellipse 8" cx="0.507" cy="0.507" r="0.507" transform="translate(14.054 23.05)" fill="none" stroke="#403630" stroke-linecap="round" stroke-linejoin="round" stroke-width="1"/>
  </g>
</svg>
