<svg xmlns="http://www.w3.org/2000/svg" xmlns:xlink="http://www.w3.org/1999/xlink" width="60" height="60" viewBox="0 0 60 60">
  <defs>
    <clipPath id="clip-path">
      <rect id="Rectangle_46" data-name="Rectangle 46" width="60" height="60" fill="none" stroke="#fff" stroke-width="1"/>
    </clipPath>
  </defs>
  <g id="Group_159" data-name="Group 159" transform="translate(0 0)">
    <g id="Group_158" data-name="Group 158" transform="translate(0 0)" clip-path="url(#clip-path)">
      <path id="Path_6098" data-name="Path 6098" d="M25.838,48.72H14.251v-.06a3.837,3.837,0,0,0-1.129-2.725L3.713,38.467A8.934,8.934,0,0,1,1,31.843V20.626a3,3,0,1,1,5.993,0v8.38a3.183,3.183,0,0,1,4.126.092c1.306.957,9.32,8.742,11.036,10.456a11.964,11.964,0,0,1,3.683,9.106ZM14.371,48.6H25.717a11.834,11.834,0,0,0-3.649-8.959c-1.713-1.714-9.721-9.49-11.021-10.445a3.086,3.086,0,0,0-4.073-.006,2.882,2.882,0,0,0,0,4.067l5.415,5.416-.086.085L6.89,33.341a3,3,0,0,1-.018-4.218v-8.5a2.875,2.875,0,1,0-5.75,0V31.843a8.815,8.815,0,0,0,2.672,6.534L13.2,45.846A3.951,3.951,0,0,1,14.371,48.6Z" transform="translate(0.215 3.789)" fill="none" stroke="#fff" stroke-linecap="round" stroke-linejoin="round" stroke-width="1"/>
      <path id="Path_6099" data-name="Path 6099" d="M25.726,50.253V45.127a1.957,1.957,0,0,0-1.957-1.957H12.3a1.957,1.957,0,0,0-1.957,1.957v5.126Z" transform="translate(2.224 9.28)" fill="none" stroke="#fff" stroke-linecap="round" stroke-linejoin="round" stroke-width="1"/>
      <path id="Path_6100" data-name="Path 6100" d="M40.144,48.72H28.557v-.06a11.959,11.959,0,0,1,3.683-9.106c1.716-1.714,9.731-9.5,11.037-10.456a3.18,3.18,0,0,1,4.126-.092v-8.38a3,3,0,1,1,5.992,0V31.843a8.925,8.925,0,0,1-2.708,6.619L41.269,45.94a3.829,3.829,0,0,0-1.125,2.72ZM28.677,48.6H40.024a3.947,3.947,0,0,1,1.164-2.749l9.419-7.478a8.811,8.811,0,0,0,2.667-6.529V20.626a2.875,2.875,0,1,0-5.75,0v8.5a3,3,0,0,1-.017,4.218l-5.415,5.416L42,38.672l5.416-5.416a2.885,2.885,0,0,0,0-4.067,3.087,3.087,0,0,0-4.074.006c-1.3.955-9.308,8.731-11.02,10.445A11.835,11.835,0,0,0,28.677,48.6Z" transform="translate(6.139 3.789)" fill="none" stroke="#fff" stroke-linecap="round" stroke-linejoin="round" stroke-width="1"/>
      <path id="Path_6101" data-name="Path 6101" d="M27,50.253V45.127a1.957,1.957,0,0,1,1.957-1.957H40.42a1.957,1.957,0,0,1,1.957,1.957v5.126Z" transform="translate(5.804 9.28)" fill="none" stroke="#fff" stroke-linecap="round" stroke-linejoin="round" stroke-width="1"/>
      <path id="Path_6102" data-name="Path 6102" d="M39.029,16.5c0,8.558-11.92,15.5-11.92,15.5S15.188,25.055,15.188,16.5,27.109,1,27.109,1,39.029,7.939,39.029,16.5Z" transform="translate(3.265 0.214)" fill="none" stroke="#fff" stroke-linecap="round" stroke-linejoin="round" stroke-width="1"/>
      <path id="Path_6103" data-name="Path 6103" d="M25,33.97a.012.012,0,0,1-.012-.012V7.871a.012.012,0,0,1,.024,0V33.958A.012.012,0,0,1,25,33.97Z" transform="translate(5.372 1.689)" fill="none" stroke="#fff" stroke-linecap="round" stroke-linejoin="round" stroke-width="1"/>
      <path id="Path_6104" data-name="Path 6104" d="M25,20.289l-.01,0a.013.013,0,0,1,0-.017l4.769-3.576c0-.006.011,0,.016,0a.011.011,0,0,1,0,.017l-4.768,3.576Z" transform="translate(5.372 3.587)" fill="none" stroke="#fff" stroke-linecap="round" stroke-linejoin="round" stroke-width="1"/>
      <path id="Path_6105" data-name="Path 6105" d="M25.846,20.289l-.007,0-4.768-3.576a.011.011,0,0,1,0-.017c0-.006.012-.007.016,0l4.769,3.576a.013.013,0,0,1,0,.017Z" transform="translate(4.529 3.587)" fill="none" stroke="#fff" stroke-linecap="round" stroke-linejoin="round" stroke-width="1"/>
      <path id="Path_6106" data-name="Path 6106" d="M25,14.191l-.01,0a.014.014,0,0,1,0-.018l3.576-2.384a.017.017,0,0,1,.017,0,.014.014,0,0,1,0,.018L25.008,14.19Z" transform="translate(5.372 2.533)" fill="none" stroke="#fff" stroke-linecap="round" stroke-linejoin="round" stroke-width="1"/>
      <path id="Path_6107" data-name="Path 6107" d="M25.635,14.191h-.006l-3.577-2.385a.014.014,0,0,1,0-.018.013.013,0,0,1,.017,0l3.576,2.384a.014.014,0,0,1,0,.018Z" transform="translate(4.739 2.532)" fill="none" stroke="#fff" stroke-linecap="round" stroke-linejoin="round" stroke-width="1"/>
    </g>
  </g>
</svg>
