<svg xmlns="http://www.w3.org/2000/svg" xmlns:xlink="http://www.w3.org/1999/xlink" width="60" height="55.091" viewBox="0 0 60 55.091">
  <defs>
    <clipPath id="clip-path">
      <rect id="Rectangle_45" data-name="Rectangle 45" width="60" height="55.091" fill="none" stroke="#fff" stroke-width="1"/>
    </clipPath>
  </defs>
  <g id="Group_156" data-name="Group 156" transform="translate(0 0)">
    <g id="Group_155" data-name="Group 155" transform="translate(0 0)" clip-path="url(#clip-path)">
      <path id="Path_6093" data-name="Path 6093" d="M25.531,44.245H14.087v-.059a3.79,3.79,0,0,0-1.115-2.692L3.679,34.118A8.823,8.823,0,0,1,1,27.576V16.5a2.959,2.959,0,1,1,5.918,0v8.278a3.144,3.144,0,0,1,4.075.091c1.29.946,9.205,8.634,10.9,10.327a11.816,11.816,0,0,1,3.637,8.994Zm-11.326-.119H25.413a11.688,11.688,0,0,0-3.6-8.849c-1.692-1.693-9.6-9.373-10.885-10.316A3.048,3.048,0,0,0,6.9,24.955a2.846,2.846,0,0,0,0,4.016L12.25,34.32l-.085.085-5.347-5.35A2.965,2.965,0,0,1,6.8,24.889V16.5a2.84,2.84,0,1,0-5.68,0v11.08a8.707,8.707,0,0,0,2.639,6.454l9.293,7.376A3.9,3.9,0,0,1,14.206,44.126Z" transform="translate(0.2 2.708)" fill="none" stroke="#fff" stroke-linecap="round" stroke-linejoin="round" stroke-width="1"/>
      <path id="Path_6094" data-name="Path 6094" d="M23.6,39.079H12.276a1.933,1.933,0,0,0-1.932,1.933v5.063H25.536V41.012A1.933,1.933,0,0,0,23.6,39.079Z" transform="translate(2.069 7.816)" fill="none" stroke="#fff" stroke-linecap="round" stroke-linejoin="round" stroke-width="1"/>
      <path id="Path_6095" data-name="Path 6095" d="M40,44.245H28.557v-.059a11.812,11.812,0,0,1,3.637-8.994c1.694-1.693,9.611-9.382,10.9-10.327a3.141,3.141,0,0,1,4.075-.091V16.5a2.959,2.959,0,0,1,5.918,0v11.08a8.815,8.815,0,0,1-2.675,6.538l-9.3,7.386A3.782,3.782,0,0,0,40,44.186Zm-11.326-.119H39.883a3.9,3.9,0,0,1,1.15-2.716l9.3-7.386a8.7,8.7,0,0,0,2.634-6.449V16.5a2.84,2.84,0,1,0-5.68,0v8.393a2.967,2.967,0,0,1-.017,4.166L41.924,34.4l-.085-.085,5.35-5.348a2.849,2.849,0,0,0,0-4.016,3.049,3.049,0,0,0-4.024.006c-1.284.943-9.193,8.623-10.884,10.316A11.689,11.689,0,0,0,28.676,44.126Z" transform="translate(5.711 2.708)" fill="none" stroke="#fff" stroke-linecap="round" stroke-linejoin="round" stroke-width="1"/>
      <path id="Path_6096" data-name="Path 6096" d="M40.255,39.079H28.928A1.933,1.933,0,0,0,27,41.012v5.063H42.188V41.012A1.933,1.933,0,0,0,40.255,39.079Z" transform="translate(5.399 7.816)" fill="none" stroke="#fff" stroke-linecap="round" stroke-linejoin="round" stroke-width="1"/>
      <path id="Path_6097" data-name="Path 6097" d="M26.914,22.787a.545.545,0,0,0,.563,0c1.91-1.147,12.892-8.035,12.892-14.7A7.087,7.087,0,0,0,27.635,3.8a.548.548,0,0,1-.88,0A7.087,7.087,0,0,0,14.022,8.092C14.022,14.752,25,21.64,26.914,22.787Z" transform="translate(2.804 0.2)" fill="none" stroke="#fff" stroke-linecap="round" stroke-linejoin="round" stroke-width="1"/>
    </g>
  </g>
</svg>
